<svg width="40" height="36" viewBox="0 0 40 36" fill="none" xmlns="http://www.w3.org/2000/svg">
<path d="M39.9938 10.9889C39.4023 4.3646 34.5381 0.943616 30.2706 0.570076C25.021 0.110062 22.2568 1.72276 20 3.8837C17.7432 1.72158 14.9696 0.108004 9.7294 0.568899C5.45987 0.94244 0.596782 4.36372 0.00617665 10.9889L0 13.0249L0.00529427 13.1616C0.606488 20.0912 6.8705 27.227 19.157 34.9784L19.9991 35.5099L20.8412 34.9784C33.1274 27.2267 39.3929 20.0901 39.9929 13.1616L40.0003 11.1289L39.9938 10.9889ZM21.9959 9.31533C21.9959 9.31533 22.8401 10.6563 22.8401 12.3142L21.9959 12.0889V9.31533ZM21.9706 12.9616C23.8001 12.9331 24.0295 15.8291 23.8433 16.8458C23.6739 17.7806 22.9224 18.9512 21.9706 18.9512C21.02 18.9512 20.2474 18.1777 20.2474 17.2259C20.2474 16.2744 20.1432 12.9901 21.9706 12.9616ZM18.0044 9.31533V12.1195L17.1602 12.3142C17.1599 10.6565 18.0044 9.31533 18.0044 9.31533ZM17.6832 12.9616C19.6653 12.7784 19.4065 16.2752 19.4065 17.2267C19.4065 18.1782 18.635 18.9521 17.6832 18.9521C16.7314 18.9521 16.3452 18.0953 15.959 17.2267C15.4852 16.167 15.701 13.1449 17.6832 12.9616ZM12.9695 13.3363V16.0544L12.1254 16.3344C12.1262 14.6775 12.9695 13.3363 12.9695 13.3363ZM12.881 21.4995C12.4977 20.6301 11.4756 17.5541 12.7357 16.9017C13.9936 16.2482 15.6513 19.2374 16.0337 20.1071C16.419 20.9766 16.0252 21.9966 15.1557 22.3798C14.2842 22.7648 13.2674 22.369 12.881 21.4995ZM25.5284 25.2649C24.0989 27.7859 22.9683 25.5638 19.8106 25.5638C16.6528 25.5638 15.599 27.8112 14.0907 25.2649C13.3022 23.9334 15.9108 22.8922 16.7487 22.1092C17.7973 21.1304 18.0549 19.3524 19.8097 19.3524C21.4824 19.3524 21.8403 21.1007 22.8854 22.0134C23.8157 22.8228 26.3758 23.7755 25.5284 25.2649ZM26.8696 21.5016C26.5443 22.3963 25.5549 22.8596 24.6613 22.5331C23.7666 22.2078 22.9204 20.9321 23.2445 20.0383C23.3877 19.6477 24.3045 19.5889 24.8328 18.9097C25.5096 18.0424 25.8813 16.6023 26.7087 16.9064C28.1852 17.4459 27.1937 20.6101 26.8696 21.5016ZM27.0305 16.0544V13.3363C27.0305 13.3363 27.8746 14.6773 27.8746 16.3344L27.0305 16.0544Z" fill="#010002"/>
</svg>
