<svg width="40" height="70" viewBox="0 0 40 70" fill="none" xmlns="http://www.w3.org/2000/svg">
<path d="M33.188 69.0478H6.81194C3.5782 69.0478 0.956055 66.4564 0.956055 63.2607V6.73136C0.956055 3.53564 3.5782 0.944336 6.81194 0.944336H33.188C36.4218 0.944336 39.0439 3.53564 39.0439 6.73136V63.2607C39.0439 66.4634 36.4218 69.0478 33.188 69.0478Z" fill="#EC92A1"/>
<path d="M32.9069 70H7.09315C3.18453 70 0 66.8529 0 62.9903V7.00973C0 3.14708 3.18453 0 7.09315 0H32.9069C36.8155 0 40 3.14708 40 7.00973V62.9903C40 66.8529 36.8225 70 32.9069 70ZM7.09315 1.89659C4.23902 1.89659 1.91916 4.18916 1.91916 7.00973V62.9903C1.91916 65.8108 4.23902 68.1034 7.09315 68.1034H32.9069C35.761 68.1034 38.0808 65.8108 38.0808 62.9903V7.00973C38.0808 4.18916 35.761 1.89659 32.9069 1.89659H7.09315Z" fill="#191919"/>
<path d="M0.956055 9.66309H39.0439V56.3552H0.956055V9.66309Z" fill="#FAFCFB"/>
<path d="M39.0439 57.3005H0.956063C0.428822 57.3005 0 56.8768 0 56.3557V9.66357C0 9.14253 0.428822 8.71875 0.956063 8.71875H39.0439C39.5712 8.71875 40 9.14253 40 9.66357V56.3557C40 56.8768 39.5712 57.3005 39.0439 57.3005ZM1.91916 55.4109H38.0879V10.6084H1.91916V55.4109Z" fill="#0F0F0F"/>
<path d="M8.52026 29.5047C8.52026 30.0501 8.7395 30.5732 9.12973 30.9588C9.51996 31.3445 10.0492 31.5611 10.6011 31.5611C11.153 31.5611 11.6823 31.3445 12.0725 30.9588C12.4627 30.5732 12.682 30.0501 12.682 29.5047C12.682 28.9594 12.4627 28.4363 12.0725 28.0507C11.6823 27.665 11.153 27.4484 10.6011 27.4484C10.0492 27.4484 9.51996 27.665 9.12973 28.0507C8.7395 28.4363 8.52026 28.9594 8.52026 29.5047Z" fill="#0F0F0F"/>
<path d="M27.3181 29.5047C27.3181 30.0501 27.5373 30.5732 27.9276 30.9588C28.3178 31.3445 28.8471 31.5611 29.399 31.5611C29.9508 31.5611 30.4801 31.3445 30.8703 30.9588C31.2606 30.5732 31.4798 30.0501 31.4798 29.5047C31.4798 28.9594 31.2606 28.4363 30.8703 28.0507C30.4801 27.665 29.9508 27.4484 29.399 27.4484C28.8471 27.4484 28.3178 27.665 27.9276 28.0507C27.5373 28.4363 27.3181 28.9594 27.3181 29.5047Z" fill="#0F0F0F"/>
<path d="M20.0001 37.5357C17.4623 37.5357 15.3955 35.5488 15.3955 33.1034V31.707C15.3955 31.186 15.8243 30.7622 16.3516 30.7622C16.8788 30.7622 17.3076 31.186 17.3076 31.707V33.1034C17.3076 34.5067 18.5168 35.6391 20.0001 35.6391C21.4834 35.6391 22.6925 34.4998 22.6925 33.1034V31.707C22.6925 31.186 23.1213 30.7622 23.6486 30.7622C24.1758 30.7622 24.6046 31.186 24.6046 31.707V33.1034C24.6046 35.5419 22.5379 37.5357 20.0001 37.5357ZM23.6486 5.79394H16.3586C15.8314 5.79394 15.4025 5.37016 15.4025 4.84912C15.4025 4.32808 15.8314 3.9043 16.3586 3.9043H23.6486C24.1758 3.9043 24.6046 4.32808 24.6046 4.84912C24.6046 5.37016 24.1758 5.79394 23.6486 5.79394Z" fill="#0F0F0F"/>
<path d="M17.3357 62.6779C17.3357 63.0237 17.4046 63.3661 17.5385 63.6855C17.6724 64.005 17.8686 64.2952 18.1161 64.5397C18.3635 64.7842 18.6572 64.9782 18.9804 65.1105C19.3037 65.2428 19.6501 65.3109 20 65.3109C20.3499 65.3109 20.6964 65.2428 21.0196 65.1105C21.3429 64.9782 21.6366 64.7842 21.884 64.5397C22.1314 64.2952 22.3276 64.005 22.4615 63.6855C22.5954 63.3661 22.6643 63.0237 22.6643 62.6779C22.6643 61.9796 22.3836 61.3099 21.884 60.8161C21.3843 60.3223 20.7066 60.0449 20 60.0449C19.2934 60.0449 18.6157 60.3223 18.1161 60.8161C17.6164 61.3099 17.3357 61.9796 17.3357 62.6779Z" fill="#FAFCFB"/>
<path d="M20 66.2555C18.0035 66.2555 16.3796 64.6507 16.3796 62.6777C16.3796 60.7047 18.0035 59.0999 20 59.0999C21.9965 59.0999 23.6204 60.7047 23.6204 62.6777C23.6204 64.6507 21.9965 66.2555 20 66.2555ZM20 60.9895C19.058 60.9895 18.2918 61.7467 18.2918 62.6777C18.2918 63.6086 19.058 64.3658 20 64.3658C20.942 64.3658 21.7083 63.6086 21.7083 62.6777C21.7083 61.7467 20.942 60.9895 20 60.9895Z" fill="#0F0F0F"/>
</svg>
